<svg width="168" height="42" viewBox="0 0 168 42" fill="none" xmlns="http://www.w3.org/2000/svg">
<path fill-rule="evenodd" clip-rule="evenodd" d="M128.221 33.962L121.374 21.0446L128.221 8.12724H141.915L144.701 13.3819C144.795 13.5597 144.969 13.6703 145.157 13.6703H150.438C150.843 13.6703 151.097 13.1909 150.894 12.809L146.54 4.59324C145.691 2.99358 144.109 1.99805 142.413 1.99805H127.724C126.027 1.99805 124.446 2.99358 123.597 4.59324L116.253 18.4503C115.404 20.051 115.404 22.0392 116.253 23.6407L123.597 37.496C124.446 39.0975 126.028 40.0911 127.724 40.0911H135.803C136.209 40.0911 136.463 39.6128 136.259 39.2308L133.619 34.2484C133.525 34.0716 133.352 33.962 133.163 33.962H128.221Z" fill="#009ADE"/>
<mask id="mask0_5251_4584" style="mask-type:luminance" maskUnits="userSpaceOnUse" x="132" y="1" width="36" height="40">
<path d="M132.651 1.99805H168V40.0902H132.651V1.99805Z" fill="white"/>
</mask>
<g mask="url(#mask0_5251_4584)">
<path fill-rule="evenodd" clip-rule="evenodd" d="M155.395 8.12724L162.242 21.0446L155.395 33.962H141.701L138.915 28.7063C138.822 28.5295 138.647 28.4189 138.459 28.4189H133.178C132.773 28.4189 132.52 28.8973 132.723 29.2793L137.077 37.495C137.925 39.0956 139.507 40.0902 141.204 40.0902H155.893C157.589 40.0902 159.17 39.0956 160.019 37.495L167.364 23.6388C168.212 22.0382 168.212 20.0491 167.364 18.4485L160.018 4.59324C159.17 2.99169 157.59 1.99805 155.893 1.99805H147.813C147.407 1.99805 147.154 2.47643 147.356 2.85838L149.997 7.84078C150.091 8.01757 150.265 8.12724 150.453 8.12724H155.395Z" fill="#1F4280"/>
</g>
<path fill-rule="evenodd" clip-rule="evenodd" d="M71.0906 24.6328V38.0976H72.8917V32.8476L76.2907 38.2734L78.0666 37.5435L74.9245 32.9233L77.3106 29.6445L75.7083 28.7653L72.8917 32.8079V24.6328H71.0906ZM59.5213 38.0985H57.5146V26.4121H53.3882V24.6328H63.5678V26.4121H59.5213V38.0985ZM90.1245 38.0985H88.2306V30.3678H86.9573V28.6339H88.2306V28.4599C88.2306 27.0815 88.5223 26.1096 89.1055 25.5196C89.6749 24.941 90.4292 24.6328 91.3423 24.6328C91.6748 24.6328 92.7866 24.7983 92.7866 24.7983V26.4622C92.7866 26.4622 91.8266 26.3393 91.5836 26.3393C91.1713 26.3393 90.8076 26.4546 90.5212 26.6721C90.3363 26.795 90.1245 27.176 90.1245 28.1725V28.6339H92.6686V30.3678H90.1245V38.0985Z" fill="#1F4280"/>
<path fill-rule="evenodd" clip-rule="evenodd" d="M11.6604 38.1028H13.4884V24.6343H11.6604V38.1028ZM4.54474 25.3036L0 38.1028H1.72988L2.9086 34.5121H7.29363L8.36125 38.1028H10.4852L6.29893 25.3036H4.54474ZM5.18705 27.5689L6.90998 33.2452H3.32002L5.18791 27.5689H5.18705ZM47.7536 38.1028H49.5816V29.056H47.7536V38.1028ZM47.7536 27.5528H49.5816V25.7915H47.7536V27.5528ZM34.6949 27.5528H36.5228V25.7915H34.6949V27.5528ZM38.3708 24.6343V38.099H40.1996V32.678C40.1996 31.1473 41.006 30.1518 42.2394 30.1518C43.3972 30.1518 44.0725 30.98 44.0725 32.5172V38.099H45.9022V32.2223C45.9022 29.9627 44.9596 28.8235 43.1195 28.8235C42.0727 28.8235 41.1049 29.2867 40.4374 30.1092L40.1788 30.4259V24.6343H38.3708ZM101.319 38.1V29.0834H99.4904V34.5385C99.4904 36.0512 98.6832 37.0496 97.4428 37.0496C96.285 37.0496 95.6097 36.212 95.6097 34.7097V29.0834H93.7808V34.9716C93.7808 37.2377 94.7217 38.3685 96.5619 38.3685C97.6234 38.3685 98.5764 37.9147 99.2378 37.0893L99.5034 36.7754V38.1H101.318H101.319ZM17.6026 25.3036V38.099H19.4306V32.7044H20.9669C20.9669 32.7044 23.2601 38.1 23.3591 38.3203C23.537 38.2758 25.1402 37.9421 25.4596 37.8778C25.2747 37.4807 22.7819 32.3092 22.7819 32.3092L22.9094 32.2251C24.1481 31.3789 24.7704 30.1962 24.7704 28.5663C24.7704 26.5166 23.4467 25.3046 21.2464 25.3046L17.6026 25.3036ZM19.4306 26.5705H20.9417C22.1743 26.5705 22.9173 27.4403 22.9173 28.7932C22.9173 30.0052 22.2203 31.4366 20.677 31.4366H19.4306V26.5705ZM34.6957 29.0541V38.1832C34.6957 39.2118 34.5491 40.1081 34.3781 40.5694C34.2322 40.9287 33.9067 41.1906 33.5431 41.3069V41.9403C35.6349 41.9091 36.5237 40.7557 36.5237 38.1V29.0551L34.6957 29.0541ZM29.8255 28.8235C28.685 28.8235 27.771 29.1978 26.8961 29.9769C27.0028 30.1527 27.3223 30.6784 27.4412 30.8873C28.0896 30.2671 28.7466 29.992 29.5469 29.992C30.3828 29.992 30.9643 30.6784 31.0832 31.5945L31.0962 31.7363L29.1502 32.3905C27.1625 33.0504 26.2295 34.0904 26.2295 35.6504C26.2295 37.2065 27.1478 38.3335 28.4341 38.3335C30.1692 38.3335 31.1561 36.5429 31.1561 36.5429V38.1H33.031V32.158C33.031 29.9495 31.9573 28.8235 29.8255 28.8235ZM30.3689 36.3557C30.0364 36.7764 29.6137 36.99 29.2145 36.99C28.5808 36.99 28.0896 36.3112 28.0896 35.4613C28.0896 34.2946 28.6589 33.5165 29.7934 33.1223L30.9895 32.6638L31.1908 32.5891L31.203 32.8188C31.3219 34.8704 30.7325 35.916 30.3689 36.3557ZM65.8883 28.8235C64.7435 28.8235 63.8286 29.1978 62.9563 29.9769C63.0683 30.1527 63.379 30.6784 63.4979 30.8873C64.148 30.2671 64.8086 29.992 65.6175 29.992C66.4395 29.992 67.028 30.6784 67.1478 31.5945L67.1538 31.7363L65.207 32.3905C63.234 33.0504 62.2931 34.0904 62.2931 35.6504C62.2931 37.2065 63.2132 38.3335 64.4917 38.3335C66.2268 38.3335 67.2207 36.5429 67.2207 36.5429V38.1H69.0868V32.158C69.0868 29.9495 68.0149 28.8235 65.8883 28.8235ZM66.4256 36.3557C66.0827 36.7764 65.6835 36.99 65.2738 36.99C64.6376 36.99 64.148 36.3112 64.148 35.4613C64.148 34.2946 64.7174 33.5165 65.8415 33.1223L67.0349 32.6638L67.2476 32.5891L67.2589 32.8188C67.3804 34.8704 66.7971 35.916 66.4256 36.3557ZM82.5119 28.8235C81.3601 28.8235 80.4374 29.1978 79.5712 29.9769C79.6779 30.1527 79.9817 30.6784 80.1006 30.8873C80.7637 30.2671 81.4252 29.992 82.2202 29.992C83.0682 29.992 83.6368 30.6784 83.7565 31.5945L83.7756 31.7363L81.8348 32.3905C79.8428 33.0504 78.9098 34.0904 78.9098 35.6504C78.9098 37.2065 79.8428 38.3335 81.1014 38.3335C82.8443 38.3335 83.8234 36.5429 83.8234 36.5429V38.1H85.7043V32.158C85.7043 29.9495 84.6245 28.8235 82.5119 28.8235ZM83.0413 36.3557C82.7106 36.7764 82.3001 36.99 81.8826 36.99C81.2602 36.99 80.7507 36.3112 80.7507 35.4613C80.7507 34.2946 81.3184 33.5165 82.4589 33.1223L83.6776 32.6638L83.8633 32.5891L83.8772 32.8188C83.9952 34.8704 83.412 35.916 83.0413 36.3557ZM102.828 38.1028H104.668V24.6343H102.828V38.1028ZM3.27402 20.5992H5.52816V18.4332H3.27402V20.5992ZM6.42392 20.5992H8.67893V18.4332H6.42392V20.5992ZM30.8784 19.0657H33.1334V16.9243H30.8784V19.0657ZM76.3761 2.13597H78.6311V0.0210485H76.3761V2.13597ZM30.7959 4.67916C30.2708 4.67916 29.7561 4.73872 29.2535 4.82854V6.6135C29.2535 6.6135 29.8559 6.2429 30.9061 6.2429C33.2141 6.2429 35.6601 8.59512 35.6601 12.9053C35.6601 12.945 35.654 13.309 35.5915 13.517H27.626V12.945C27.626 8.08648 24.6055 4.67916 20.2847 4.67916C19.7292 4.67916 19.1858 4.74534 18.6598 4.84367V6.5842L18.7214 6.6135C18.7214 6.6135 19.3212 6.2429 20.388 6.2429C22.6942 6.2429 25.1393 8.59512 25.1393 12.9053L25.128 13.517H16.1757V4.67916H14.1533C8.66417 4.67916 8.48537 7.74329 8.48537 11.3586V13.586C8.48537 15.3445 7.91858 15.6886 7.0532 15.6886H5.28773C4.16977 15.6886 2.32618 15.509 2.32618 11.092C2.32618 7.35188 3.82779 6.12188 6.81971 6.14363V4.67822C4.5187 4.69145 3.06397 5.16795 1.72468 6.56623C0.566791 7.78489 0.0815901 9.06972 0.0815901 11.1232C0.0815901 15.7028 1.93212 17.2495 4.45707 17.2495H7.62694C9.6337 17.2495 10.7543 15.8815 10.7543 13.3525V11.0182C10.7543 7.95128 11.1622 6.22399 13.9293 6.22399V15.0949H37.8873C38.1173 14.0531 38.1607 12.7881 38.1607 12.7881C38.0514 8.01368 35.0724 4.67916 30.7959 4.67916ZM102.502 3.61839H104.763V1.45904H102.502V3.61839ZM99.355 3.61839H101.615V1.45904H99.355V3.61839ZM40.3168 15.0949H42.5727V0.00970338H40.3168V15.0949ZM78.8099 10.0955H77.0627C76.0862 10.0955 75.2946 9.23328 75.2946 8.16873C75.2946 7.10512 76.0862 6.2429 77.0627 6.2429H78.8099V10.0955ZM79.1936 4.69145H76.5914C74.8624 4.69145 73.4614 6.21831 73.4614 8.10066C73.4614 9.98395 74.8624 11.5099 76.5914 11.5099H78.8646V11.7472C78.8646 12.9195 78.3603 13.5605 77.3864 13.5605H70.5233V0.020103H68.2709V13.5983C68.2709 15.3596 67.7111 15.7019 66.8301 15.7019H65.0742C63.9545 15.7019 62.11 15.5223 62.11 11.1071C62.11 7.36512 63.6133 6.13417 66.5905 6.15686V4.69145C64.3043 4.70563 62.8478 4.78316 61.5102 6.18239C60.3489 7.39915 59.8437 9.08296 59.8437 11.1364C59.8437 15.7161 61.7012 17.2637 64.2418 17.2637H67.4099C68.8855 17.2637 69.8689 16.5064 70.2916 15.1082H77.9298C78.9592 15.1082 79.7395 14.7205 80.3107 13.9037C80.8176 13.1908 81.0702 12.3116 81.0702 11.2697V4.69429H79.1944L79.1936 4.69145ZM49.2761 11.2433C49.2761 13.1436 48.4497 13.5161 47.7606 13.5161H46.9681V4.67822H44.7348V15.1961C44.7348 16.5811 44.7348 17.311 44.3451 18.1127C44.155 18.5193 43.7583 18.8861 43.3087 19.0525V19.7956C45.8701 19.7483 46.9681 18.3226 46.9681 15.0949H48.3048C49.3672 15.0949 50.164 14.6912 50.7525 13.8753C51.2698 13.1436 51.5293 12.2369 51.5293 11.1601V0.0078125H49.2752V11.2423L49.2761 11.2433ZM53.6741 15.0949H55.9291V0.00970338H53.6741V15.0949Z" fill="#1F4280"/>
<path fill-rule="evenodd" clip-rule="evenodd" d="M102.511 4.57586V11.2354C102.511 13.1376 101.678 13.5101 100.995 13.5101H98.3993V12.8994C98.3993 8.402 95.8093 5.15446 91.9962 4.69498L98.5113 0.00945425H96.0662L89.4322 4.79804V6.53857L89.4947 6.56882C89.4947 6.56882 90.0945 6.19821 91.1612 6.19821C93.4675 6.19821 95.9126 8.54949 95.9126 12.8616L95.9021 13.5101H88.303C87.6208 13.5101 86.8005 13.1376 86.8005 11.2354V0H84.5611V11.1532C84.5611 12.231 84.8198 13.1376 85.3388 13.8694C85.9239 14.6834 86.7189 15.0871 87.777 15.0871H101.541C102.606 15.0871 103.399 14.6834 103.972 13.8694C104.493 13.1376 104.764 12.23 104.764 11.1532V4.57586H102.511Z" fill="#1F4280"/>
</svg>
