<svg xmlns="http://www.w3.org/2000/svg" width="89" height="29" fill="none" viewBox="0 0 89 29"><path fill="#fff" d="M37.8134 2.5073C38.4944 3.2086 38.8359 4.17566 38.8359 5.41217V11.532H36.3702V5.71853C36.3702 5.08182 36.1986 4.5946 35.8535 4.25687 35.5102 3.91913 35.0507 3.75119 34.4767 3.75119 33.84 3.75119 33.3306 3.94866 32.9468 4.34361 32.5647 4.73855 32.3728 5.33097 32.3728 6.12086V11.5338H29.9072V1.45719H32.3728V2.7952C32.9708 1.90381 33.9212 1.45719 35.2205 1.45719 36.265 1.45719 37.1288 1.80784 37.8098 2.50915L37.8134 2.5073ZM45.5259 9.31177C46.469 9.31177 47.1832 8.99251 47.6668 8.3558L49.6286 9.56647C48.6855 10.9303 46.9675 11.6113 45.4613 11.6113 43.9552 11.6113 42.6395 11.0687 41.6835 10.1127 40.7275 9.15676 40.2496 7.95347 40.2496 6.50104 40.2496 5.0486 40.7202 3.86006 41.6632 2.89853 42.6063 1.93702 43.817 1.45534 45.2952 1.45534 46.6979 1.45534 47.8532 1.93887 48.7649 2.90778 49.6765 3.87669 50.1324 5.07444 50.1324 6.50104 50.1324 6.82032 50.101 7.15805 50.0364 7.51424H42.8296C43.16 8.71199 44.0587 9.31177 45.5241 9.31177H45.5259ZM47.6668 5.60411C47.5265 4.95448 47.2368 4.47095 46.7975 4.15167 46.3583 3.83239 45.8581 3.67368 45.2971 3.67368 44.6345 3.67368 44.0864 3.8416 43.6527 4.17934 43.219 4.51707 42.933 4.99139 42.7927 5.60411H47.6668ZM52.55 10.0869C51.5756 9.11247 51.0884 7.92002 51.0884 6.50288 51.0884 5.08575 51.5756 3.8933 52.55 2.91885 53.5245 1.94441 54.7185 1.45719 56.1341 1.45719 57.5496 1.45719 58.7455 1.94441 59.7273 2.91885 60.7092 3.8933 61.1982 5.0892 61.1982 6.50288 61.1982 7.91656 60.7073 9.11247 59.7273 10.0869 58.7474 11.0614 57.5478 11.5486 56.1341 11.5486 54.7204 11.5486 53.5245 11.0614 52.55 10.0869ZM57.9888 8.39456C58.4853 7.89811 58.7344 7.26693 58.7344 6.50288 58.7344 5.73883 58.4853 5.10766 57.9888 4.61121 57.4924 4.11476 56.8741 3.86561 56.1341 3.86561 55.394 3.86561 54.7795 4.11476 54.2904 4.61121 53.7995 5.10766 53.554 5.73883 53.554 6.50288 53.554 7.26693 53.7995 7.89811 54.2904 8.39456 54.7813 8.89101 55.3959 9.14015 56.1341 9.14015 56.8723 9.14015 57.4905 8.89101 57.9888 8.39456ZM65.8434 3.84162V8.25799C65.8434 8.59018 65.9265 8.83197 66.0926 8.98515 66.2587 9.13833 66.5004 9.2232 66.8197 9.2435 67.139 9.26196 67.5339 9.26011 68.0046 9.23427V11.4711C66.3104 11.663 65.1145 11.5024 64.4205 10.9931 63.7266 10.4837 63.3796 9.57201 63.3796 8.25983V3.84347H61.7168V1.4738H63.3796V.172701H65.8453V1.4738H68.0046V3.84347H65.8453L65.8434 3.84162ZM74.0432 9.31177C74.9862 9.31177 75.7004 8.99251 76.184 8.3558L78.1716 9.50188C77.2285 10.8657 75.8389 11.5467 74.0044 11.5467 72.4246 11.5467 71.1567 11.0687 70.2007 10.1128 69.2448 9.15676 68.7668 7.95347 68.7668 6.50104 68.7668 5.0486 69.2374 3.86006 70.1804 2.89853 71.1235 1.93702 72.3342 1.45534 73.8125 1.45534 75.2151 1.45534 76.3704 1.93887 77.2821 2.90778 78.1938 3.87669 78.6496 5.07444 78.6496 6.50104 78.6496 6.82032 78.6182 7.15805 78.5536 7.51424H71.3468C71.6772 8.71199 72.5759 9.31177 74.0413 9.31177H74.0432ZM76.184 5.60411C76.0437 4.95448 75.754 4.47095 75.3147 4.15167 74.8755 3.83239 74.3753 3.67368 73.8143 3.67368 73.1518 3.67368 72.6036 3.8416 72.1699 4.17934 71.7362 4.51707 71.4502 4.99139 71.3099 5.60411H76.184ZM86.0244 11.5578 82.6452 7.31861V11.5541H80.1796V.169006H82.6452V6.30541L85.9321 2.09944H88.8757L85.0333 6.82032 88.8905 11.5578H86.0225 86.0244ZM82.6932 13.7872H80.3401V16.1403H82.6932V13.7872ZM80.3401 17.2402V21.1195C80.3401 21.5163 80.0614 21.8393 79.72 21.8393H76.7469V17.2402H74.3938V21.8393H67.9621C67.8034 20.6637 67.3106 19.6542 66.4875 18.8144 65.4688 17.7736 64.1585 17.2531 62.5584 17.2531 61.0414 17.2531 59.7901 17.7773 58.8046 18.8255 57.9593 19.7243 57.4758 20.8058 57.3558 22.07 57.3355 22.2785 57.3263 22.4944 57.3263 22.7122 57.3263 23.0573 57.3614 23.8066 57.4296 24.1942H65.227C64.8671 25.4897 63.9591 25.8792 62.3738 25.8792 61.9973 25.8792 61.6467 25.8164 61.3274 25.7001L60.4674 27.9092C61.0377 28.0846 61.667 28.1732 62.3517 28.1732 64.0606 28.1732 65.4337 27.6564 66.4672 26.6211 67.1556 25.9327 67.617 25.1225 67.8458 24.1942H74.3569C76.0917 23.9912 76.6454 22.8875 76.6454 22.8875V24.1942H79.72C81.3588 24.1942 82.6932 22.8156 82.6932 21.1195V17.2402H80.3401ZM59.9303 21.8042C60.0835 21.1011 60.46 20.5142 60.9343 20.1691 61.4105 19.8258 61.9512 19.6523 62.5584 19.6523 63.2763 19.6523 63.8687 19.835 64.3375 20.2004 64.8062 20.5659 65.179 21.1417 65.3304 21.8042H59.9303ZM56.1599 21.1195C56.1599 22.7768 54.8865 24.1314 53.2975 24.1905L48.4659 24.1923V22.8875C48.4659 22.8875 47.9141 23.9912 46.1774 24.1923H32.7216C31.0828 24.1923 29.7485 22.8137 29.7485 21.1177V17.2384H32.1015V21.1177C32.1015 21.5163 32.3783 21.8393 32.7216 21.8393H46.2623V13.6857H48.6154V21.8393H53.1867C53.5282 21.8393 53.8069 21.5163 53.8069 21.1177V17.2384H56.1599V21.1195Z"/><path fill="#fff" d="M42.4882 19.8479H38.094L38.0995 19.8535 35.5785 19.8572V17.3325L39.0703 13.8407 40.5153 15.2858 37.9998 17.7994H42.49L42.4882 19.8479ZM56.1581 13.8186H51.2379V16.107H56.1581V13.8186ZM76.6453 25.8201H71.7897V28.1732H76.6453V25.8201Z"/><path fill="#EF6701" d="M24.1528 5.06704V13.8057H20.5374V7.51424L14.9214 13.132L12.358 10.5667L17.8577 5.06704H11.7988V1.45349H20.5374L24.1528 5.06704Z"/><path fill="#fff" d="M24.1528 17.4321V21.0051L20.5374 24.6223H4.59935L0.983948 21.0051V5.06704L4.59935 1.45349H8.17415V5.06704H4.59935V21.0051H20.5374V17.4321H24.1528Z"/></svg>